<?xml version="1.0" encoding="UTF-8" standalone="no" ?>
<!DOCTYPE svg PUBLIC "-//W3C//DTD SVG 1.1//EN" "http://www.w3.org/Graphics/SVG/1.1/DTD/svg11.dtd">
<svg xmlns="http://www.w3.org/2000/svg" xmlns:xlink="http://www.w3.org/1999/xlink" version="1.1" width="1280" height="1024" viewBox="0 0 1280 1024" xml:space="preserve">
<desc>Created with Fabric.js 3.6.3</desc>
<defs>
</defs>
<g transform="matrix(1.9662058371735787 0 0 1.9662058371735787 640.2456813819576 512.1966205837173)" id="background-logo"  >
<rect style="stroke: none; stroke-width: 1; stroke-dasharray: none; stroke-linecap: butt; stroke-dashoffset: 0; stroke-linejoin: miter; stroke-miterlimit: 4; fill: rgb(39,39,39); fill-rule: nonzero; opacity: 1;"  paint-order="stroke"  x="-325" y="-260" rx="0" ry="0" width="650" height="520" />
</g>
<g transform="matrix(1.9699870022450665 0 0 1.9699870022450665 640.2456813819576 399.17835008079226)" id="logo-logo"  >
<g style=""  paint-order="stroke"   >
		<g transform="matrix(1.2406728851744158 0 0 1.2406728851744158 0 0)"  >
<g style=""  paint-order="stroke"   >
		<g transform="matrix(1 0 0 1 -19.610709032463177 -20.376076542114276)"  >
<path style="stroke: rgb(55,182,255); stroke-width: 2; stroke-dasharray: none; stroke-linecap: round; stroke-dashoffset: 0; stroke-linejoin: round; stroke-miterlimit: 4; fill: none; fill-rule: nonzero; opacity: 1;"  paint-order="stroke"  transform=" translate(-80.38526539121582, -79.6203483071445)" d="M 19.46 159.29 A 100 100 0 0 1 160.82 20.61" stroke-linecap="round" />
</g>
		<g transform="matrix(1 0 0 1 19.589734608784198 19.254651692855504)"  >
<path style="stroke: rgb(55,182,255); stroke-width: 2; stroke-dasharray: none; stroke-linecap: round; stroke-dashoffset: 0; stroke-linejoin: round; stroke-miterlimit: 4; fill: none; fill-rule: nonzero; opacity: 1;"  paint-order="stroke"  transform=" translate(-119.5857090324632, -119.25107654211428)" d="M 178.83 38.46 A 100 100 0 0 1 39.13 179.35" stroke-linecap="round" />
</g>
		<g transform="matrix(1 0 0 1 0.004025576320998425 0.003575150741227162)"  >
<line style="stroke: rgb(55,182,255); stroke-width: 2; stroke-dasharray: none; stroke-linecap: round; stroke-dashoffset: 0; stroke-linejoin: round; stroke-miterlimit: 4; fill: none; fill-rule: nonzero; opacity: 1;"  paint-order="stroke"  x1="92.4" y1="-92.4" x2="-92.4" y2="92.4" />
</g>
</g>
</g>
</g>
</g>
<g transform="matrix(1.9699870022450665 0 0 1.9699870022450665 641.7775283100862 786.5277237257588)" id="text-logo-path"  >
<path style="stroke: none; stroke-width: 0; stroke-dasharray: none; stroke-linecap: butt; stroke-dashoffset: 0; stroke-linejoin: miter; stroke-miterlimit: 4; fill: rgb(55,182,255); fill-rule: nonzero; opacity: 1;"  paint-order="stroke"  transform=" translate(-273.61, 24.835)" d="M 46.16 0 L 4.03 -18.39 L 4.03 -20.72 L 46.16 -39.12 L 46.16 -37.42 L 5.02 -19.62 L 46.16 -1.7 L 46.16 0 Z M 59.09 0 L 57.47 0 L 57.47 -39.27 L 59.09 -39.27 L 59.09 -28.91 Q 61.22 -34.13 65.32 -37.12 Q 69.41 -40.1 74.91 -40.1 L 74.91 -40.1 Q 77.32 -40.1 79.5 -39.43 L 79.5 -39.43 L 79.02 -37.89 Q 76.93 -38.48 74.91 -38.48 L 74.91 -38.48 Q 69.61 -38.48 65.83 -35.46 Q 62.06 -32.43 60.24 -27.21 L 60.24 -27.21 Q 59.09 -24.24 59.09 -22.86 L 59.09 -22.86 Q 59.05 -22.86 59.05 -11.43 L 59.05 -11.43 L 59.09 0 Z M 89.62 0 L 88 0 L 88 -39.27 L 89.62 -39.27 L 89.62 0 Z M 89.62 -47.86 L 88 -47.86 L 88 -55.89 L 89.62 -55.89 L 89.62 -47.86 Z M 100.97 -19.7 L 100.97 -19.7 Q 100.97 -23.69 101.96 -27.27 Q 102.95 -30.85 104.91 -33.76 Q 106.87 -36.66 110.15 -38.38 Q 113.43 -40.1 117.66 -40.1 L 117.66 -40.1 Q 122.73 -40.1 126.46 -37.55 Q 130.2 -35 132.22 -30.3 L 132.22 -30.3 L 130.75 -29.66 Q 128.94 -33.9 125.59 -36.19 Q 122.25 -38.48 117.66 -38.48 L 117.66 -38.48 Q 114.54 -38.48 111.99 -37.43 Q 109.44 -36.39 107.72 -34.59 Q 106 -32.79 104.81 -30.36 Q 103.62 -27.92 103.11 -25.25 Q 102.59 -22.58 102.59 -19.7 L 102.59 -19.7 Q 102.59 -16.02 103.46 -12.72 Q 104.33 -9.41 106.08 -6.7 Q 107.82 -3.99 110.8 -2.39 Q 113.79 -0.79 117.66 -0.79 L 117.66 -0.79 Q 122.21 -0.79 125.57 -3.1 Q 128.94 -5.42 130.75 -9.65 L 130.75 -9.65 L 132.3 -9.06 Q 130.28 -4.35 126.5 -1.78 Q 122.73 0.79 117.66 0.79 L 117.66 0.79 Q 113.43 0.79 110.15 -0.93 Q 106.87 -2.65 104.91 -5.56 Q 102.95 -8.46 101.96 -12.06 Q 100.97 -15.66 100.97 -19.7 Z M 144.44 0 L 142.82 0 L 142.82 -59.96 L 144.44 -59.96 L 144.44 -28.99 Q 146.58 -34.09 150.75 -37.1 Q 154.92 -40.1 160.26 -40.1 L 160.26 -40.1 Q 163.86 -40.1 166.53 -38.82 Q 169.2 -37.53 170.74 -35.2 Q 172.28 -32.87 173 -30.02 Q 173.71 -27.17 173.71 -23.73 L 173.71 -23.73 L 173.71 0 L 172.09 0 L 172.09 -23.73 Q 172.09 -26.18 171.73 -28.3 Q 171.37 -30.41 170.52 -32.31 Q 169.67 -34.21 168.35 -35.56 Q 167.02 -36.9 164.97 -37.69 Q 162.91 -38.48 160.26 -38.48 L 160.26 -38.48 Q 154.37 -38.48 150.43 -34.84 Q 146.5 -31.21 144.95 -25.27 L 144.95 -25.27 Q 144.91 -25.08 144.76 -24.54 Q 144.6 -24.01 144.52 -23.59 Q 144.44 -23.18 144.44 -22.86 L 144.44 -22.86 L 144.44 0 Z M 185.02 -9.73 L 185.02 -9.73 Q 185.02 -12.54 185.99 -14.79 Q 186.96 -17.05 188.56 -18.49 Q 190.16 -19.93 192.39 -20.9 Q 194.63 -21.87 196.98 -22.27 Q 199.34 -22.66 201.95 -22.66 L 201.95 -22.66 L 213.34 -22.66 L 213.34 -26.82 Q 213.34 -32.04 209.96 -35.26 Q 206.57 -38.48 201.35 -38.48 L 201.35 -38.48 Q 196.49 -38.48 193.5 -36.53 Q 190.52 -34.57 188.82 -30.45 L 188.82 -30.45 L 187.35 -31.09 Q 189.25 -35.67 192.63 -37.89 Q 196.01 -40.1 201.35 -40.1 L 201.35 -40.1 Q 207.25 -40.1 211.1 -36.41 Q 214.96 -32.71 214.96 -26.82 L 214.96 -26.82 L 214.96 0 L 213.34 0 L 213.34 -11.51 Q 211.68 -5.77 207.17 -2.49 Q 202.66 0.79 196.84 0.79 L 196.84 0.79 Q 191.62 0.79 188.32 -1.92 Q 185.02 -4.63 185.02 -9.73 Z M 186.64 -9.73 L 186.64 -9.73 Q 186.64 -5.3 189.47 -3.05 Q 192.3 -0.79 196.84 -0.79 L 196.84 -0.79 Q 203.61 -0.79 208.47 -5.91 Q 213.34 -11.03 213.34 -17.84 L 213.34 -17.84 L 213.34 -21.04 L 201.95 -21.04 Q 198.98 -21.04 196.41 -20.49 Q 193.84 -19.93 191.56 -18.69 Q 189.29 -17.44 187.97 -15.15 Q 186.64 -12.85 186.64 -9.73 Z M 230.74 0 L 229.12 0 L 229.12 -39.27 L 230.74 -39.27 L 230.74 -28.91 Q 232.88 -34.13 236.97 -37.12 Q 241.06 -40.1 246.56 -40.1 L 246.56 -40.1 Q 248.97 -40.1 251.15 -39.43 L 251.15 -39.43 L 250.67 -37.89 Q 248.58 -38.48 246.56 -38.48 L 246.56 -38.48 Q 241.26 -38.48 237.48 -35.46 Q 233.71 -32.43 231.89 -27.21 L 231.89 -27.21 Q 230.74 -24.24 230.74 -22.86 L 230.74 -22.86 Q 230.7 -22.86 230.7 -11.43 L 230.7 -11.43 L 230.74 0 Z M 257.24 -19.7 L 257.24 -19.7 Q 257.24 -22.86 257.83 -25.79 Q 258.42 -28.71 259.73 -31.34 Q 261.04 -33.97 262.95 -35.91 Q 264.87 -37.85 267.7 -38.98 Q 270.53 -40.1 273.93 -40.1 L 273.93 -40.1 Q 279.27 -40.1 283.12 -37.26 Q 286.98 -34.41 288.88 -29.31 L 288.88 -29.31 L 288.88 -59.96 L 290.5 -59.96 L 290.5 0 L 288.88 0 L 288.88 -9.97 Q 286.98 -4.86 283.12 -2.04 Q 279.27 0.79 273.93 0.79 L 273.93 0.79 Q 269.7 0.79 266.39 -0.93 Q 263.09 -2.65 261.15 -5.58 Q 259.22 -8.5 258.23 -12.08 Q 257.24 -15.66 257.24 -19.7 Z M 258.86 -19.7 L 258.86 -19.7 Q 258.86 -16.02 259.73 -12.72 Q 260.6 -9.41 262.34 -6.7 Q 264.08 -3.99 267.07 -2.39 Q 270.05 -0.79 273.93 -0.79 L 273.93 -0.79 Q 277.77 -0.79 280.73 -2.39 Q 283.7 -3.99 285.44 -6.7 Q 287.18 -9.41 288.03 -12.72 Q 288.88 -16.02 288.88 -19.7 L 288.88 -19.7 Q 288.88 -22.58 288.36 -25.25 Q 287.85 -27.92 286.68 -30.36 Q 285.52 -32.79 283.82 -34.59 Q 282.12 -36.39 279.56 -37.43 Q 277.01 -38.48 273.93 -38.48 L 273.93 -38.48 Q 270.8 -38.48 268.25 -37.43 Q 265.7 -36.39 263.98 -34.59 Q 262.26 -32.79 261.07 -30.36 Q 259.89 -27.92 259.37 -25.25 Q 258.86 -22.58 258.86 -19.7 Z M 306.68 0 L 305.06 0 L 305.06 -59.96 L 306.68 -59.96 L 306.68 0 Z M 320.84 -15.54 L 320.84 -15.54 L 320.84 -39.27 L 322.46 -39.27 L 322.46 -15.54 Q 322.46 -13.09 322.81 -10.98 Q 323.17 -8.86 324.02 -6.96 Q 324.87 -5.06 326.2 -3.72 Q 327.52 -2.37 329.58 -1.58 Q 331.63 -0.79 334.28 -0.79 L 334.28 -0.79 Q 340.18 -0.79 344.11 -4.43 Q 348.05 -8.07 349.59 -14 L 349.59 -14 Q 350.06 -16.14 350.06 -16.45 L 350.06 -16.45 L 350.06 -39.27 L 351.69 -39.27 L 351.69 0 L 350.06 0 L 350.06 -10.28 Q 347.93 -5.18 343.78 -2.2 Q 339.62 0.79 334.28 0.79 L 334.28 0.79 Q 330.68 0.79 328.01 -0.49 Q 325.34 -1.78 323.8 -4.09 Q 322.26 -6.41 321.55 -9.25 Q 320.84 -12.1 320.84 -15.54 Z M 363.43 -19.7 L 363.43 -19.7 Q 363.43 -23.69 364.42 -27.27 Q 365.41 -30.85 367.37 -33.76 Q 369.33 -36.66 372.61 -38.38 Q 375.89 -40.1 380.12 -40.1 L 380.12 -40.1 Q 385.19 -40.1 388.92 -37.55 Q 392.66 -35 394.68 -30.3 L 394.68 -30.3 L 393.21 -29.66 Q 391.39 -33.9 388.05 -36.19 Q 384.71 -38.48 380.12 -38.48 L 380.12 -38.48 Q 377 -38.48 374.45 -37.43 Q 371.9 -36.39 370.18 -34.59 Q 368.46 -32.79 367.27 -30.36 Q 366.08 -27.92 365.57 -25.25 Q 365.05 -22.58 365.05 -19.7 L 365.05 -19.7 Q 365.05 -16.02 365.92 -12.72 Q 366.79 -9.41 368.53 -6.7 Q 370.27 -3.99 373.26 -2.39 Q 376.25 -0.79 380.12 -0.79 L 380.12 -0.79 Q 384.67 -0.79 388.03 -3.1 Q 391.39 -5.42 393.21 -9.65 L 393.21 -9.65 L 394.76 -9.06 Q 392.74 -4.35 388.96 -1.78 Q 385.19 0.79 380.12 0.79 L 380.12 0.79 Q 375.89 0.79 372.61 -0.93 Q 369.33 -2.65 367.37 -5.56 Q 365.41 -8.46 364.42 -12.06 Q 363.43 -15.66 363.43 -19.7 Z M 402.47 -9.73 L 402.47 -9.73 Q 402.47 -12.54 403.44 -14.79 Q 404.41 -17.05 406.01 -18.49 Q 407.61 -19.93 409.84 -20.9 Q 412.08 -21.87 414.43 -22.27 Q 416.79 -22.66 419.4 -22.66 L 419.4 -22.66 L 430.79 -22.66 L 430.79 -26.82 Q 430.79 -32.04 427.41 -35.26 Q 424.02 -38.48 418.8 -38.48 L 418.8 -38.48 Q 413.94 -38.48 410.95 -36.53 Q 407.97 -34.57 406.27 -30.45 L 406.27 -30.45 L 404.8 -31.09 Q 406.7 -35.67 410.08 -37.89 Q 413.46 -40.1 418.8 -40.1 L 418.8 -40.1 Q 424.7 -40.1 428.55 -36.41 Q 432.41 -32.71 432.41 -26.82 L 432.41 -26.82 L 432.41 0 L 430.79 0 L 430.79 -11.51 Q 429.13 -5.77 424.62 -2.49 Q 420.11 0.79 414.29 0.79 L 414.29 0.79 Q 409.07 0.79 405.77 -1.92 Q 402.47 -4.63 402.47 -9.73 Z M 404.09 -9.73 L 404.09 -9.73 Q 404.09 -5.3 406.92 -3.05 Q 409.75 -0.79 414.29 -0.79 L 414.29 -0.79 Q 421.06 -0.79 425.92 -5.91 Q 430.79 -11.03 430.79 -17.84 L 430.79 -17.84 L 430.79 -21.04 L 419.4 -21.04 Q 416.43 -21.04 413.86 -20.49 Q 411.29 -19.93 409.01 -18.69 Q 406.74 -17.44 405.42 -15.15 Q 404.09 -12.85 404.09 -9.73 Z M 442.53 -8.82 L 442.53 -8.82 L 444 -9.49 Q 445.97 -4.9 449.06 -2.85 Q 452.14 -0.79 457.05 -0.79 L 457.05 -0.79 Q 459.5 -0.79 461.48 -1.27 Q 463.46 -1.74 465.08 -2.77 Q 466.7 -3.8 467.61 -5.62 Q 468.52 -7.44 468.52 -9.97 L 468.52 -9.97 Q 468.52 -12.06 467.69 -13.61 Q 466.86 -15.15 465.47 -16.04 Q 464.09 -16.93 462.27 -17.58 Q 460.45 -18.23 458.45 -18.67 Q 456.46 -19.1 454.46 -19.56 Q 452.46 -20.01 450.64 -20.72 Q 448.82 -21.44 447.44 -22.45 Q 446.05 -23.45 445.22 -25.15 Q 444.39 -26.85 444.39 -29.15 L 444.39 -29.15 Q 444.39 -34.13 447.89 -37.12 Q 451.39 -40.1 456.46 -40.1 L 456.46 -40.1 Q 461.44 -40.1 464.76 -37.89 Q 468.08 -35.67 470.06 -31.09 L 470.06 -31.09 L 468.6 -30.53 Q 466.78 -34.57 463.85 -36.53 Q 460.92 -38.48 456.46 -38.48 L 456.46 -38.48 Q 452.1 -38.48 449.06 -35.97 Q 446.01 -33.46 446.01 -29.15 L 446.01 -29.15 Q 446.01 -27.13 446.84 -25.69 Q 447.68 -24.24 449.06 -23.37 Q 450.44 -22.5 452.26 -21.91 Q 454.08 -21.32 456.08 -20.86 Q 458.08 -20.41 460.07 -19.95 Q 462.07 -19.5 463.89 -18.75 Q 465.71 -18 467.09 -16.93 Q 468.48 -15.86 469.31 -14.1 Q 470.14 -12.34 470.14 -9.97 L 470.14 -9.97 Q 470.14 -7.08 469.11 -4.94 Q 468.08 -2.81 466.24 -1.58 Q 464.41 -0.36 462.11 0.22 Q 459.82 0.79 457.05 0.79 L 457.05 0.79 Q 451.63 0.79 448.13 -1.54 Q 444.63 -3.88 442.53 -8.82 Z M 473.26 10.84 L 471.76 10.28 L 497.51 -60.51 L 499.05 -59.96 L 473.26 10.84 Z M 543.19 -18.39 L 501.07 0 L 501.07 -1.7 L 542.2 -19.62 L 501.07 -37.42 L 501.07 -39.12 L 543.19 -20.72 L 543.19 -18.39 Z" stroke-linecap="round" />
</g>
<g transform="matrix(-1.9699870022450665 0 0 -1.9699870022450665 746.0846731289688 481.7210618262433)" id="tagline-b92fb9f1-bbe8-44cc-b9c9-0780ba61f991-logo-path"  >
<path style="stroke: none; stroke-width: 0; stroke-dasharray: none; stroke-linecap: butt; stroke-dashoffset: 0; stroke-linejoin: miter; stroke-miterlimit: 4; fill: rgb(55,182,255); fill-rule: nonzero; opacity: 1;"  paint-order="stroke"  transform=" translate(-17.85, 30.11)" d="M 30.19 -3.61 L 3.7 -30.11 L 30.19 -56.61 L 32 -54.8 L 7.31 -30.11 L 32 -5.42 L 30.19 -3.61 Z" stroke-linecap="round" />
</g>
<g transform="matrix(1.9699870022450665 0 0 1.9699870022450665 536.3837055110058 323.3217248018183)" id="tagline-b78e174c-0240-414c-8059-3ee0a8b73578-logo-path"  >
<path style="stroke: none; stroke-width: 0; stroke-dasharray: none; stroke-linecap: butt; stroke-dashoffset: 0; stroke-linejoin: miter; stroke-miterlimit: 4; fill: rgb(55,182,255); fill-rule: nonzero; opacity: 1;"  paint-order="stroke"  transform=" translate(-17.85, 30.11)" d="M 30.19 -3.61 L 3.7 -30.11 L 30.19 -56.61 L 32 -54.8 L 7.31 -30.11 L 32 -5.42 L 30.19 -3.61 Z" stroke-linecap="round" />
</g>
</svg>